<?xml version="1.0" encoding="UTF-8"?>
<svg xmlns="http://www.w3.org/2000/svg" width="786" height="187" viewBox="0 0 786 187" fill="none">
  <g clip-path="url(#clip0_8009_7427)">
    <path d="M542.09 118.522C539.586 118.569 537.112 117.966 534.91 116.772C532.841 115.656 531.113 114.001 529.91 111.982C528.717 109.863 528.09 107.473 528.09 105.042C528.09 102.61 528.717 100.22 529.91 98.1016C531.114 96.0929 532.842 94.4506 534.91 93.3516C537.118 92.1764 539.589 91.5844 542.09 91.6316C544.613 91.5834 547.108 92.1751 549.34 93.3516C551.408 94.4369 553.138 96.0698 554.34 98.0716C555.52 100.2 556.14 102.593 556.14 105.027C556.14 107.46 555.52 109.854 554.34 111.982C553.146 114.008 551.416 115.666 549.34 116.772C547.114 117.967 544.617 118.57 542.09 118.522ZM542.09 113.262C543.487 113.274 544.864 112.93 546.09 112.262C547.271 111.598 548.236 110.608 548.87 109.412C549.528 108.042 549.87 106.541 549.87 105.022C549.87 103.502 549.528 102.002 548.87 100.632C548.234 99.4437 547.269 98.4645 546.09 97.8116C544.858 97.1601 543.484 96.8196 542.09 96.8196C540.696 96.8196 539.323 97.1601 538.09 97.8116C536.917 98.4725 535.954 99.4496 535.31 100.632C534.633 101.996 534.28 103.498 534.28 105.022C534.28 106.545 534.633 108.047 535.31 109.412C535.953 110.602 536.916 111.589 538.09 112.262C539.313 112.939 540.692 113.284 542.09 113.262Z" fill="#333333"></path>
    <path d="M562 127.712V91.9316H567.85V98.1216L567.65 105.122L568.14 112.122V127.752L562 127.712ZM576.55 118.522C574.512 118.546 572.503 118.039 570.72 117.052C568.921 116.01 567.467 114.462 566.54 112.602C565.428 110.245 564.897 107.656 564.99 105.052C564.892 102.446 565.405 99.8531 566.49 97.4816C567.381 95.6312 568.815 94.0964 570.6 93.0817C572.426 92.0965 574.475 91.5972 576.55 91.6316C578.94 91.5839 581.3 92.1595 583.4 93.3016C585.369 94.3995 587.001 96.0142 588.12 97.9716C589.269 100.158 589.87 102.591 589.87 105.062C589.87 107.532 589.269 109.965 588.12 112.152C587.008 114.122 585.375 115.748 583.4 116.852C581.3 117.994 578.94 118.569 576.55 118.522ZM575.86 113.262C577.241 113.275 578.602 112.93 579.81 112.262C580.986 111.592 581.95 110.604 582.59 109.412C583.268 108.047 583.62 106.545 583.62 105.022C583.62 103.498 583.268 101.996 582.59 100.632C581.949 99.4477 580.985 98.4699 579.81 97.8116C578.604 97.1364 577.242 96.7915 575.86 96.8116C574.462 96.7898 573.083 97.1345 571.86 97.8116C570.674 98.4653 569.699 99.4436 569.05 100.632C568.372 101.996 568.02 103.498 568.02 105.022C568.02 106.545 568.372 108.047 569.05 109.412C569.698 110.608 570.673 111.596 571.86 112.262C573.085 112.935 574.463 113.279 575.86 113.262Z" fill="#333333"></path>
    <path d="M592.23 96.9989V92.0789H609.73V96.9989H592.23ZM605.6 118.479C603.163 118.636 600.762 117.831 598.91 116.239C597.344 114.746 596.557 112.542 596.55 109.629V86.1289H602.701V109.519C602.644 110.579 603.003 111.619 603.701 112.419C604.049 112.766 604.467 113.035 604.927 113.208C605.388 113.38 605.88 113.452 606.37 113.419C607.61 113.464 608.828 113.082 609.82 112.339L611.54 116.709C610.753 117.328 609.848 117.78 608.88 118.039C607.814 118.348 606.711 118.51 605.6 118.519V118.479Z" fill="#333333"></path>
    <path d="M619.659 87.6013C619.139 87.6197 618.621 87.5337 618.135 87.3482C617.649 87.1626 617.205 86.8815 616.829 86.5214C616.479 86.1811 616.2 85.7739 616.009 85.3238C615.819 84.8737 615.721 84.3901 615.721 83.9014C615.721 83.4127 615.819 82.929 616.009 82.4789C616.2 82.0288 616.479 81.6216 616.829 81.2814C617.607 80.5933 618.622 80.2347 619.659 80.2814C620.693 80.2374 621.704 80.5958 622.479 81.2814C622.838 81.5989 623.122 81.9905 623.314 82.4292C623.506 82.8678 623.6 83.3428 623.589 83.8214C623.602 84.3241 623.513 84.8243 623.327 85.2917C623.142 85.7591 622.864 86.1842 622.509 86.5413C622.133 86.9047 621.685 87.1864 621.195 87.3688C620.705 87.5512 620.182 87.6304 619.659 87.6013ZM616.559 118.181V91.9313H622.699V118.181H616.559Z" fill="#333333"></path>
    <path d="M642.811 118.522C640.252 118.571 637.723 117.969 635.461 116.772C633.387 115.663 631.658 114.006 630.461 111.982C629.268 109.863 628.641 107.473 628.641 105.042C628.641 102.61 629.268 100.22 630.461 98.1017C631.66 96.0891 633.39 94.4457 635.461 93.3517C637.729 92.1739 640.256 91.5826 642.811 91.6317C645.157 91.585 647.479 92.1174 649.571 93.1817C651.497 94.1906 653.055 95.7833 654.021 97.7317L649.301 100.482C648.605 99.3235 647.61 98.3737 646.421 97.7317C645.292 97.1401 644.035 96.8346 642.761 96.8418C641.338 96.8233 639.934 97.1674 638.681 97.8418C637.476 98.4838 636.486 99.4639 635.831 100.662C635.153 102.029 634.8 103.535 634.8 105.062C634.8 106.588 635.153 108.094 635.831 109.462C636.49 110.659 637.479 111.641 638.681 112.292C639.936 112.962 641.339 113.305 642.761 113.292C644.034 113.302 645.291 113 646.421 112.412C647.61 111.766 648.605 110.813 649.301 109.652L654.021 112.412C653.034 114.343 651.482 115.927 649.571 116.952C647.487 118.041 645.161 118.581 642.811 118.522Z" fill="#333333"></path>
    <path d="M667.24 118.519C665.468 118.56 663.708 118.219 662.08 117.519C660.696 116.931 659.51 115.959 658.66 114.719C657.859 113.518 657.441 112.102 657.46 110.659C657.421 109.259 657.767 107.876 658.46 106.659C659.289 105.38 660.504 104.399 661.93 103.859C663.972 103.105 666.145 102.765 668.32 102.859H676V106.939H668.82C666.72 106.939 665.31 107.279 664.59 107.939C664.243 108.251 663.967 108.634 663.781 109.062C663.594 109.49 663.502 109.952 663.51 110.419C663.493 110.937 663.607 111.45 663.839 111.913C664.071 112.375 664.415 112.773 664.84 113.069C665.928 113.796 667.224 114.147 668.53 114.069C669.945 114.1 671.342 113.755 672.58 113.069C673.766 112.404 674.68 111.341 675.16 110.069L676.16 113.749C675.577 115.292 674.449 116.569 672.99 117.339C671.204 118.213 669.226 118.619 667.24 118.519ZM675.5 118.179V112.869L675.15 111.739V102.449C675.196 101.672 675.075 100.895 674.796 100.169C674.516 99.4424 674.085 98.7844 673.53 98.239C672.14 97.1328 670.381 96.5965 668.61 96.739C667.133 96.74 665.665 96.9729 664.26 97.429C662.944 97.8312 661.719 98.4831 660.65 99.349L658.24 94.879C659.733 93.749 661.431 92.9203 663.24 92.439C665.217 91.8951 667.259 91.6226 669.31 91.629C673.11 91.629 676.053 92.539 678.14 94.359C680.227 96.179 681.267 98.989 681.26 102.789V118.179H675.5Z" fill="#333333"></path>
    <path d="M689.16 118.179V81.6992H695.31V118.179H689.16Z" fill="#333333"></path>
    <path d="M530.289 177.161V140.691H536.439V177.161H530.289Z" fill="#333333"></path>
    <path d="M552.41 177.511C550.638 177.552 548.878 177.211 547.25 176.511C545.87 175.918 544.684 174.947 543.83 173.711C543.029 172.51 542.611 171.095 542.63 169.651C542.591 168.252 542.937 166.868 543.63 165.651C544.458 164.372 545.674 163.391 547.1 162.851C549.143 162.099 551.315 161.759 553.49 161.851H561.11V165.931H554C551.91 165.931 550.5 166.261 549.78 166.931C549.429 167.243 549.15 167.627 548.962 168.057C548.774 168.487 548.681 168.952 548.69 169.421C548.676 169.938 548.79 170.451 549.022 170.913C549.254 171.375 549.597 171.773 550.02 172.071C551.11 172.793 552.404 173.143 553.71 173.071C555.108 173.093 556.487 172.748 557.71 172.071C558.895 171.405 559.808 170.343 560.29 169.071L561.29 172.761C560.7 174.301 559.575 175.576 558.12 176.351C556.344 177.21 554.38 177.609 552.41 177.511ZM560.67 177.161V171.851L560.32 170.721V161.431C560.365 160.656 560.244 159.88 559.965 159.156C559.685 158.431 559.254 157.775 558.7 157.231C557.312 156.127 555.557 155.591 553.79 155.731C552.313 155.73 550.844 155.963 549.44 156.421C548.121 156.823 546.892 157.475 545.82 158.341L543.41 153.861C544.905 152.738 546.603 151.913 548.41 151.431C550.387 150.888 552.429 150.616 554.48 150.621C558.28 150.621 561.23 151.531 563.31 153.351C565.39 155.171 566.43 157.981 566.43 161.781V177.161H560.67Z" fill="#333333"></path>
    <path d="M574.33 177.161V140.691H580.48V157.001L579.99 164.001L580.18 171.001V177.191L574.33 177.161ZM588.88 177.511C586.804 177.551 584.755 177.04 582.94 176.031C581.15 175 579.717 173.447 578.83 171.581C577.749 169.219 577.236 166.637 577.33 164.041C577.231 161.43 577.762 158.833 578.88 156.471C579.803 154.62 581.259 153.088 583.06 152.071C584.843 151.095 586.848 150.595 588.88 150.621C591.273 150.574 593.637 151.149 595.74 152.291C597.709 153.389 599.341 155.004 600.46 156.961C601.609 159.144 602.21 161.574 602.21 164.041C602.21 166.508 601.609 168.938 600.46 171.121C599.337 173.08 597.706 174.7 595.74 175.811C593.643 176.972 591.277 177.559 588.88 177.511ZM588.2 172.251C589.582 172.272 590.944 171.927 592.15 171.251C593.331 170.587 594.296 169.598 594.93 168.401C595.607 167.039 595.96 165.538 595.96 164.016C595.96 162.495 595.607 160.994 594.93 159.631C594.286 158.447 593.323 157.466 592.15 156.801C590.942 156.133 589.581 155.788 588.2 155.801C586.803 155.785 585.425 156.13 584.2 156.801C583.019 157.462 582.048 158.443 581.4 159.631C580.723 160.994 580.37 162.495 580.37 164.016C580.37 165.538 580.723 167.039 581.4 168.401C582.039 169.602 583.011 170.591 584.2 171.251C585.423 171.929 586.802 172.273 588.2 172.251Z" fill="#333333"></path>
    <path d="M619.849 177.51C617.348 177.559 614.877 176.956 612.68 175.76C610.61 174.645 608.882 172.989 607.68 170.97C606.486 168.85 605.859 166.458 605.859 164.025C605.859 161.592 606.486 159.2 607.68 157.08C608.89 155.079 610.617 153.442 612.68 152.34C614.883 151.164 617.352 150.571 619.849 150.62C622.373 150.571 624.867 151.162 627.099 152.34C629.167 153.426 630.896 155.059 632.099 157.06C633.273 159.19 633.889 161.583 633.889 164.015C633.889 166.447 633.273 168.84 632.099 170.97C630.905 172.996 629.175 174.654 627.099 175.76C624.873 176.957 622.376 177.559 619.849 177.51ZM619.849 172.25C621.247 172.267 622.625 171.923 623.849 171.25C625.037 170.595 626.004 169.603 626.63 168.4C627.296 167.034 627.642 165.535 627.642 164.015C627.642 162.495 627.296 160.996 626.63 159.63C625.995 158.438 625.03 157.456 623.849 156.8C622.615 156.154 621.243 155.817 619.849 155.817C618.456 155.817 617.084 156.154 615.849 156.8C614.681 157.468 613.722 158.448 613.08 159.63C612.402 160.993 612.05 162.493 612.05 164.015C612.05 165.537 612.402 167.038 613.08 168.4C613.713 169.594 614.674 170.583 615.849 171.25C617.071 171.931 618.451 172.276 619.849 172.25Z" fill="#333333"></path>
    <path d="M639.76 177.158V150.908H645.61V158.138L644.92 156.028C645.668 154.314 646.976 152.904 648.63 152.028C650.588 151.047 652.761 150.573 654.95 150.648V156.498C654.708 156.432 654.46 156.391 654.21 156.378H653.52C652.508 156.323 651.495 156.471 650.542 156.815C649.588 157.158 648.714 157.69 647.97 158.378C646.59 159.738 645.9 161.768 645.9 164.448V177.178L639.76 177.158Z" fill="#333333"></path>
    <path d="M666.211 177.511C664.436 177.551 662.673 177.21 661.041 176.511C659.664 175.916 658.482 174.946 657.631 173.711C656.822 172.513 656.4 171.096 656.421 169.651C656.401 168.246 656.768 166.862 657.481 165.651C658.307 164.369 659.523 163.388 660.951 162.851C662.993 162.097 665.165 161.757 667.341 161.851H675.001V165.931H667.821C665.721 165.931 664.311 166.261 663.591 166.931C663.243 167.245 662.967 167.63 662.781 168.059C662.595 168.489 662.503 168.953 662.511 169.421C662.494 169.939 662.607 170.452 662.84 170.915C663.072 171.378 663.416 171.775 663.841 172.071C664.926 172.796 666.218 173.147 667.521 173.071C668.939 173.104 670.34 172.759 671.581 172.071C672.766 171.405 673.679 170.343 674.161 169.071L675.161 172.761C674.574 174.303 673.448 175.579 671.991 176.351C670.194 177.224 668.205 177.623 666.211 177.511ZM674.461 177.161V171.851L674.121 170.721V161.431C674.166 160.656 674.045 159.88 673.766 159.156C673.486 158.431 673.055 157.775 672.501 157.231C671.11 156.125 669.352 155.589 667.581 155.731C666.104 155.732 664.636 155.965 663.231 156.421C661.915 156.823 660.69 157.475 659.621 158.341L657.211 153.861C658.706 152.738 660.404 151.913 662.211 151.431C664.188 150.887 666.23 150.615 668.281 150.621C672.081 150.621 675.021 151.531 677.101 153.351C679.181 155.171 680.231 157.981 680.231 161.781V177.161H674.461Z" fill="#333333"></path>
    <path d="M684.641 155.999V151.079H702.141V155.999H684.641ZM698.001 177.509C695.564 177.662 693.164 176.858 691.311 175.269C689.771 173.756 689.001 171.553 689.001 168.659V145.109H695.151V168.509C695.095 169.569 695.454 170.609 696.151 171.409C696.501 171.757 696.921 172.026 697.383 172.198C697.845 172.371 698.339 172.443 698.831 172.409C700.067 172.452 701.281 172.071 702.271 171.329L703.991 175.709C703.204 176.33 702.299 176.783 701.331 177.039C700.248 177.35 699.127 177.508 698.001 177.509Z" fill="#333333"></path>
    <path d="M719.881 177.51C717.38 177.557 714.909 176.954 712.711 175.76C710.642 174.645 708.914 172.989 707.711 170.97C706.517 168.85 705.891 166.458 705.891 164.025C705.891 161.592 706.517 159.2 707.711 157.08C708.921 155.079 710.648 153.441 712.711 152.34C714.915 151.165 717.383 150.572 719.881 150.62C722.407 150.573 724.904 151.164 727.141 152.34C729.207 153.428 730.936 155.06 732.141 157.06C733.315 159.19 733.93 161.583 733.93 164.015C733.93 166.447 733.315 168.84 732.141 170.97C730.945 172.995 729.215 174.652 727.141 175.76C724.911 176.955 722.411 177.558 719.881 177.51ZM719.881 172.25C721.278 172.265 722.655 171.921 723.881 171.25C725.065 170.594 726.029 169.602 726.651 168.4C727.317 167.034 727.663 165.534 727.663 164.015C727.663 162.495 727.317 160.996 726.651 159.63C726.019 158.44 725.057 157.457 723.881 156.8C722.646 156.154 721.274 155.817 719.881 155.817C718.488 155.817 717.115 156.154 715.881 156.8C714.708 157.465 713.745 158.445 713.101 159.63C712.423 160.992 712.071 162.493 712.071 164.015C712.071 165.536 712.423 167.037 713.101 168.4C713.735 169.597 714.7 170.586 715.881 171.25C717.101 171.934 718.482 172.279 719.881 172.25Z" fill="#333333"></path>
    <path d="M739.789 177.161V150.911H745.639V158.141L744.999 156.001C745.751 154.289 747.058 152.88 748.709 152.001C750.667 151.02 752.84 150.546 755.029 150.621V156.471C754.788 156.404 754.539 156.364 754.289 156.351H753.609C752.596 156.295 751.581 156.443 750.626 156.786C749.671 157.13 748.794 157.662 748.049 158.351C746.669 159.711 745.989 161.741 745.989 164.421V177.151L739.789 177.161Z" fill="#333333"></path>
    <path d="M763.341 187.001C762.034 186.998 760.737 186.782 759.501 186.361C758.328 185.998 757.243 185.399 756.311 184.601L758.771 180.071C759.393 180.632 760.106 181.082 760.881 181.401C761.643 181.724 762.462 181.891 763.291 181.891C764.259 181.934 765.213 181.641 765.991 181.061C766.834 180.281 767.491 179.321 767.911 178.251L769.431 174.811L769.921 174.081L779.851 150.871H785.751L773.461 179.241C772.801 180.929 771.883 182.504 770.741 183.911C769.842 184.981 768.69 185.809 767.391 186.321C766.091 186.785 764.72 187.015 763.341 187.001ZM768.741 178.061L756.901 150.911H763.291L772.921 173.581L768.741 178.061Z" fill="#333333"></path>
    <path d="M69.37 178.461L0.25 16.6406H49.72L108 156.731H78.85L138.49 16.6406H183.8L114.45 178.461H69.37Z" fill="#333333"></path>
    <path d="M386.77 178.461V16.6406H432.539V142.161H509.75V178.461H386.77Z" fill="#333333"></path>
    <path d="M327.879 162.079C311.286 174.977 290.616 181.493 269.626 180.442C248.636 179.391 228.719 170.843 213.497 156.353C198.275 141.862 188.758 122.39 186.676 101.477C184.594 80.5643 190.085 59.5984 202.151 42.3909C214.217 25.1833 232.057 12.8765 252.428 7.70772C272.799 2.5389 294.348 4.85119 313.159 14.2243C331.969 23.5973 346.792 39.4089 354.933 58.7847C363.073 78.1605 363.991 99.814 357.519 119.809" stroke="#2297B2" stroke-width="6" stroke-miterlimit="10"></path>
    <path d="M312.17 146.372C298.723 155.954 282.165 160.133 265.781 158.078C249.397 156.023 234.384 147.884 223.72 135.278C213.056 122.671 207.52 106.516 208.21 90.0182C208.9 73.5204 215.766 57.8845 227.446 46.2124C239.126 34.5402 254.766 27.6844 271.264 27.005C287.762 26.3256 303.913 31.8721 316.513 42.5444C329.113 53.2167 337.242 68.235 339.286 84.6203C341.33 101.006 337.141 117.561 327.55 131.002" stroke="#2297B2" stroke-width="6" stroke-miterlimit="10"></path>
    <path d="M357.517 130.569C360.369 129.387 361.724 126.117 360.542 123.265C359.361 120.413 356.091 119.058 353.239 120.24C350.386 121.421 349.032 124.691 350.213 127.543C351.395 130.396 354.665 131.75 357.517 130.569Z" stroke="#2297B2" stroke-width="6" stroke-miterlimit="10"></path>
    <path d="M535.939 59.1006L524.699 32.8906H531.079L540.749 56.0006H537.609L547.609 32.8906H553.489L542.269 59.1006H535.939Z" fill="#333333"></path>
    <path d="M568.369 59.4404C565.873 59.4861 563.406 58.8868 561.209 57.7004C559.14 56.5851 557.412 54.9297 556.209 52.9104C555.016 50.7957 554.389 48.4086 554.389 45.9804C554.389 43.5522 555.016 41.1651 556.209 39.0504C557.414 37.0474 559.143 35.4118 561.209 34.3204C563.41 33.1451 565.875 32.553 568.369 32.6004C570.889 32.5521 573.38 33.1439 575.609 34.3204C577.661 35.4049 579.374 37.0348 580.559 39.0304C581.74 41.153 582.359 43.5416 582.359 45.9704C582.359 48.3991 581.74 50.7877 580.559 52.9104C579.38 54.9313 577.668 56.5885 575.609 57.7004C573.384 58.8879 570.891 59.4869 568.369 59.4404ZM568.369 54.1904C569.766 54.2059 571.144 53.8615 572.369 53.1904C573.552 52.5295 574.518 51.5394 575.149 50.3404C575.808 48.9741 576.149 47.477 576.149 45.9604C576.149 44.4438 575.808 42.9466 575.149 41.5804C574.511 40.3941 573.546 39.4155 572.369 38.7604C571.136 38.1114 569.763 37.7722 568.369 37.7722C566.975 37.7722 565.603 38.1114 564.369 38.7604C563.202 39.4244 562.242 40.401 561.599 41.5804C560.922 42.9411 560.569 44.4404 560.569 45.9604C560.569 47.4803 560.922 48.9796 561.599 50.3404C562.236 51.5324 563.196 52.5204 564.369 53.1904C565.592 53.8675 566.971 54.2123 568.369 54.1904Z" fill="#333333"></path>
    <path d="M588.24 59.1014V22.6914H594.38V59.1014H588.24Z" fill="#333333"></path>
    <path d="M613.511 59.4394C611.478 59.4778 609.463 59.0502 607.621 58.1894C605.918 57.3649 604.518 56.0247 603.621 54.3594C602.605 52.3479 602.116 50.1113 602.201 47.8594V32.8594H608.331V46.9994C608.331 49.3594 608.864 51.1194 609.931 52.2794C610.517 52.8777 611.224 53.3428 612.006 53.6431C612.788 53.9434 613.625 54.0717 614.461 54.0194C615.769 54.0524 617.063 53.7494 618.221 53.1394C619.301 52.5273 620.173 51.6039 620.721 50.4894C621.37 49.1267 621.682 47.6279 621.631 46.1194V32.8894H627.761V59.0994H622.001V51.9994L623.001 54.1594C622.149 55.831 620.796 57.1945 619.131 58.0594C617.401 58.9791 615.47 59.4534 613.511 59.4394Z" fill="#333333"></path>
    <path d="M650.71 32.5994C652.653 32.5672 654.577 32.9883 656.33 33.8294C657.987 34.6454 659.349 35.9557 660.23 37.5793C661.249 39.5897 661.738 41.8271 661.65 44.0794V59.0793H655.52V44.8694C655.668 42.9842 655.076 41.1153 653.87 39.6594C653.268 39.0675 652.548 38.6093 651.757 38.3146C650.966 38.02 650.122 37.8955 649.28 37.9494C647.953 37.9214 646.64 38.2238 645.46 38.8293C644.345 39.4138 643.443 40.3338 642.88 41.4594C642.226 42.8275 641.913 44.334 641.97 45.8494V59.0994H635.84V32.8894H641.68V39.9994L640.68 37.8394C641.587 36.1767 642.984 34.8328 644.68 33.9894C646.55 33.05 648.618 32.5733 650.71 32.5994Z" fill="#333333"></path>
    <path d="M666 38.0016V33.0916H683.47V38.0016H666ZM679.34 59.4416C676.911 59.5978 674.517 58.7974 672.67 57.2115C671.103 55.7249 670.32 53.5249 670.32 50.6115V27.1016H676.45V50.4615C676.395 51.5182 676.754 52.5548 677.45 53.3516C677.798 53.6989 678.216 53.9678 678.677 54.1403C679.137 54.3127 679.629 54.3848 680.12 54.3516C681.356 54.3947 682.57 54.0136 683.56 53.2715L685.27 57.6316C684.488 58.2525 683.585 58.7052 682.62 58.9615C681.544 59.2753 680.43 59.4369 679.31 59.4416H679.34Z" fill="#333333"></path>
    <path d="M701.69 59.4403C699.042 59.5008 696.42 58.9029 694.06 57.7003C691.958 56.6092 690.204 54.9495 689 52.9103C687.787 50.8084 687.168 48.4165 687.21 45.9903C687.161 43.562 687.765 41.1651 688.96 39.0503C690.095 37.063 691.756 35.4266 693.76 34.3203C695.903 33.1458 698.316 32.5528 700.76 32.6003C703.139 32.5601 705.488 33.1353 707.58 34.2703C709.559 35.3696 711.19 37.0012 712.29 38.9803C713.475 41.1771 714.068 43.6448 714.01 46.1403C714.01 46.4003 714.01 46.7003 714.01 47.0203C714.01 47.3403 714.01 47.6603 713.94 47.9603H692.07V43.8803H710.67L708.26 45.1603C708.334 43.7659 708.011 42.379 707.33 41.1603C706.703 40.0337 705.779 39.1 704.66 38.4603C703.474 37.7815 702.126 37.436 700.76 37.4603C699.36 37.4223 697.977 37.7681 696.76 38.4603C695.638 39.1 694.72 40.0426 694.11 41.1803C693.432 42.4391 693.087 43.8506 693.11 45.2803V46.2803C693.082 47.7429 693.455 49.1852 694.19 50.4503C694.898 51.6538 695.94 52.6263 697.19 53.2503C698.598 53.9308 700.146 54.2732 701.71 54.2503C703.075 54.2742 704.432 54.0401 705.71 53.5603C706.908 53.0894 707.982 52.3505 708.85 51.4003L712.14 55.1803C710.933 56.5727 709.411 57.6562 707.7 58.3403C705.787 59.0942 703.746 59.4679 701.69 59.4403Z" fill="#333333"></path>
    <path d="M732.211 59.4403C729.563 59.5008 726.941 58.9029 724.581 57.7003C722.479 56.6117 720.729 54.9512 719.531 52.9103C718.31 50.8112 717.688 48.418 717.731 45.9903C717.687 43.5625 718.291 41.167 719.481 39.0503C720.617 37.06 722.282 35.423 724.291 34.3203C726.434 33.1458 728.847 32.5528 731.291 32.6003C733.67 32.5601 736.019 33.1353 738.111 34.2703C740.09 35.3696 741.721 37.0012 742.821 38.9803C744.006 41.1771 744.599 43.6448 744.541 46.1403C744.541 46.4003 744.541 46.7003 744.541 47.0203C744.541 47.3403 744.541 47.6603 744.471 47.9603H722.591V43.8803H741.191L738.791 45.1603C738.856 43.7654 738.531 42.3799 737.851 41.1603C737.224 40.0337 736.3 39.1 735.181 38.4603C733.995 37.7815 732.647 37.436 731.281 37.4603C729.898 37.4314 728.533 37.7769 727.331 38.4603C726.211 39.1025 725.294 40.0446 724.681 41.1803C724.003 42.4391 723.658 43.8506 723.681 45.2803V46.2803C723.653 47.7429 724.026 49.1852 724.761 50.4503C725.469 51.6538 726.511 52.6263 727.761 53.2503C729.169 53.9308 730.717 54.2732 732.281 54.2503C733.646 54.2742 735.003 54.0401 736.281 53.5603C737.479 53.0894 738.553 52.3505 739.421 51.4003L742.711 55.1803C741.504 56.5727 739.982 57.6562 738.271 58.3403C736.342 59.1007 734.283 59.4744 732.211 59.4403Z" fill="#333333"></path>
    <path d="M750.41 59.0986V32.8886H756.25V40.1085L755.57 37.9986C756.318 36.2864 757.621 34.8769 759.27 33.9986C761.227 33.0258 763.396 32.555 765.58 32.6286V38.4686C765.338 38.4044 765.09 38.3609 764.84 38.3386H764.15C763.14 38.282 762.128 38.43 761.176 38.7736C760.224 39.1173 759.351 39.6495 758.61 40.3386C757.23 41.6886 756.55 43.7186 756.55 46.3986V59.0986H750.41Z" fill="#333333"></path>
  </g>
  <defs>
    <clipPath id="clip0_8009_7427">
      <rect width="786" height="187" fill="white"></rect>
    </clipPath>
  </defs>
</svg>
